<?xml version="1.0" encoding="utf-8"?>
<!-- Generator: Adobe Illustrator 23.0.1, SVG Export Plug-In . SVG Version: 6.00 Build 0)  -->
<svg version="1.1" id="Layer_1" xmlns="http://www.w3.org/2000/svg" xmlns:xlink="http://www.w3.org/1999/xlink" x="0px" y="0px"
	 viewBox="0 0 112 149" style="enable-background:new 0 0 112 149;" xml:space="preserve">
<style type="text/css">
	.st0{display:none;fill:#FFFFFF;}
	.st1{fill:none;stroke:#211915;stroke-width:2;stroke-miterlimit:10;}
</style>
<image style="display:none;overflow:visible;enable-background:new    ;" width="112" height="149" id="image0" xlink:href="F4EEE769.png"  transform="matrix(1 0 0 1 0 -1.464844e-05)">
</image>
<path class="st0" d="M0,13.1"/>
<g>
	<path class="st1" d="M8.9,18.1v92.9l1.1,0.1c4.4,0.9,7.8,4.6,8.6,9.3l0,0.1h8.8c0,0,1.8,20.8,29.1,20.8s28.4-20.2,28.4-20.2l9,0.2
		c0.2-11,9.2-10.5,9.2-10.5V18.4l-3.5-0.5c-3.1-0.9-5.2-4.2-5.5-7.6l-0.2-2.6H18.6c0,0,0.6,5.5-2.5,8.6C14.3,18,8.9,18.1,8.9,18.1z"
		/>
	<path class="st1" d="M27.4,120.4c0,0,3.2-13.1,17-17.6c7.5-2.4,13.7-1.8,18.6-1.1c7.5,1,14.5,5.2,18.9,11.7c1.4,2.1,2.2,5,3,7.7"/>
</g>
</svg>
